# xmcd
#
# Track frame offsets:
#	150
#	11166
#	26841
#	39461
#	50820
#	64310
#	77902
#	91108
#	103245
#	114239
#	127825
#	142240
#	157295
#	166990
#	178502
#	197505
#	208399
#	221819
#	243410
#	253049
#	266995
#	280627
#
# Disc length: 3963 seconds
#
# Revision: 3
# Processed by: cddbd v1.5.2PL0 Copyright (c) Steve Scherf et al.
# Submitted via: audiograbber 1.83.01
#
DISCID=530f7916
DTITLE=Waylon Jennings - Waylon Jennings - The Essential - Disc 2
DYEAR=2007
DGENRE=Country
TTITLE0=Waylon Jennings - This Time
TTITLE1=Waylon Jennings - It's Not Supposed To Be That Way
TTITLE2=Waylon Jennings - I'm A Ramblin' Man
TTITLE3=Waylon Jennings - Rainy Day Woman
TTITLE4=Waylon Jennings - Amanda
TTITLE5=Waylon Jennings - Bob Wills Is Still The King
TTITLE6=Waylon Jennings - Are You Sure Hank Done It This Way
TTITLE7=Waylon Jennings - Waymore's Blues
TTITLE8=Waylon Jennings - Dreaming My Dreams With You
TTITLE9=Waylon Jennings and Willie Nelson - Good Hearted Woman
TTITLE10=Waylon Jennings - Are You Ready For The Country
TTITLE11=Waylon Jennings - Luckenbach, Texas (Back To The Basics Of Love)
TTITLE12=Waylon Jennings - The Wurlitzer Prize (I Don't Want To Get Over You)
TTITLE13=Waylon Jennings and Willie Nelson - Mammas Don't Let Your Babies Grow Up
TTITLE13=To Be Cowboys
TTITLE14=Waylon Jennings - I've Always Been Crazy
TTITLE15=Waylon Jennings - A Long Time Ago
TTITLE16=Waylon Jennings - Don't You Think This Outlaw Bit's Done Got Out Of Ha
TTITLE16=nd
TTITLE17=Waylon Jennings - I Ain't Living Long Like This
TTITLE18=Waylon Jennings - Theme From The Dukes Of Hazzard (Good Ol' Boys)
TTITLE19=Waylon Jennings and Jessi Colter - Storms Never Last
TTITLE20=Waylon Jennings - Drinkin' And Dreamin'
TTITLE21=Waylon Jennings - Rose In Paradise
EXTD=
EXTT0=
EXTT1=
EXTT2=
EXTT3=
EXTT4=
EXTT5=
EXTT6=
EXTT7=
EXTT8=
EXTT9=
EXTT10=
EXTT11=
EXTT12=
EXTT13=
EXTT14=
EXTT15=
EXTT16=
EXTT17=
EXTT18=
EXTT19=
EXTT20=
EXTT21=
PLAYORDER=
